<svg width="221" height="319" xmlns="http://www.w3.org/2000/svg" xmlns:xlink="http://www.w3.org/1999/xlink" overflow="hidden"><defs><linearGradient x1="979.9" y1="273.863" x2="875.731" y2="447.498" gradientUnits="userSpaceOnUse" spreadMethod="reflect" id="fill0"><stop offset="0" stop-color="#4B7430"/><stop offset="0.48" stop-color="#74B349"/><stop offset="1" stop-color="#A9D18E"/></linearGradient></defs><g transform="translate(-817 -253)"><path d="M882.283 369.175C866.543 357.399 809.225 361.366 819.171 342.195 829.117 323.025 919.36 257.699 941.959 254.154 964.559 250.608 950.079 301.525 954.768 320.923 959.456 340.321 959.686 355.489 970.091 370.543 980.496 385.596 1025.58 394.245 1017.2 411.243 1008.81 428.241 937.054 472.262 919.789 472.53 902.525 472.797 919.94 430.379 913.613 412.848 907.285 395.318 898.024 380.95 882.283 369.175Z" stroke="#172C51" stroke-width="1.33333" stroke-miterlimit="8" fill="url(#fill0)" fill-rule="evenodd"/><path d="M959.738 455.611C996.495 513.806 1033.25 572.001 1036.47 570.031 1039.68 568.061 986.738 466.896 979.032 443.791" stroke="#172C51" stroke-width="1.33333" stroke-miterlimit="8" fill="#AFABAB" fill-rule="evenodd"/></g></svg>