<svg width="149" height="144" xmlns="http://www.w3.org/2000/svg" xmlns:xlink="http://www.w3.org/1999/xlink" overflow="hidden"><g transform="translate(-94 -371)"><rect x="95.5001" y="372.5" width="147" height="142" stroke="#172C51" stroke-width="1.33333" stroke-miterlimit="8" fill="#7030A0"/><rect x="111.5" y="397.5" width="29" height="88" stroke="#172C51" stroke-width="1.33333" stroke-miterlimit="8" fill="#0A0AC6"/><rect x="152.5" y="397.5" width="29" height="88" stroke="#172C51" stroke-width="1.33333" stroke-miterlimit="8" fill="#0A0AC6"/><path d="M188.298 449.039 196.864 449.039 205.585 470.467C206.033 471.52 206.956 474.116 208.354 478.257 208.871 476.583 209.837 473.987 211.252 470.467L219.715 449.039 228.229 449.039 228.229 485.503 222.51 485.503 222.51 461.332C222.51 460.262 222.527 459.188 222.561 458.11 222.596 457.032 222.63 455.949 222.665 454.862 222.268 455.966 221.94 456.868 221.681 457.567 221.423 458.265 220.853 459.745 219.973 462.005L210.735 485.503 205.973 485.503 196.398 461.72C195.38 459.15 194.534 456.864 193.862 454.862 193.896 455.932 193.926 456.993 193.952 458.045 193.978 459.098 193.991 460.159 193.991 461.228L193.991 485.503 188.298 485.503Z" stroke="#00B0F0" stroke-width="2" stroke-linejoin="round" stroke-miterlimit="10" fill="#00B0F0" fill-rule="evenodd"/><text fill="#000000" fill-opacity="0" font-family="Arial,Arial_MSFontService,sans-serif" font-size="36.4634" x="188.298" y="480.945">M</text></g></svg>