<svg xmlns="http://www.w3.org/2000/svg" width="24" height="24"><g transform="translate(0 0)"><g class="nc-icon-wrapper" stroke-width="2" fill="#7789e3" stroke="#7789e3"><path data-color="color-2" fill="none" stroke-linecap="square" stroke-miterlimit="10" d=" M21.645,9.999C22.476,10.732,23,11.805,23,13v4c0,2.209-1.791,4-4,4h-9c-2.209,0-4-1.791-4-4v-4c0-2.209,1.791-4,4-4h4" stroke-linejoin="miter"></path> <path fill="none" stroke="#7f7f7f" stroke-linecap="square" stroke-miterlimit="10" d="M2.355,14.001 C1.524,13.268,1,12.195,1,11V7c0-2.209,1.791-4,4-4h9c2.209,0,4,1.791,4,4v4c0,2.209-1.791,4-4,4h-4" stroke-linejoin="miter"></path></g></g></svg>